<?xml version="1.0" encoding="iso-8859-1"?>
<!-- Generator: Adobe Illustrator 19.0.0, SVG Export Plug-In . SVG Version: 6.00 Build 0)  -->
<svg version="1.1" id="Layer_1" xmlns="http://www.w3.org/2000/svg" xmlns:xlink="http://www.w3.org/1999/xlink" x="0px" y="0px"
	 viewBox="0 0 512 512" style="enable-background:new 0 0 512 512;" xml:space="preserve">
<path style="fill:#E4AD40;" d="M143.821,329.814c-8.165,21.662-18.624,51.176-24.507,67.903h63.934c5.258,0,9.558,4.182,9.7,9.435
	l1.364,50.454l37.314-87.607h-63.915c-5.362,0-9.7-4.343-9.7-9.7v-30.484H143.821z"/>
<path style="fill:#73C9C9;" d="M134.347,310.318c0.635-0.009,1.25,0.005,1.847,0.095h0.6c0.004,0,0.008,0,0.012,0h184.288
	c0,0,0.008,0,0.012,0h83.686c0.341-0.057,0.682-0.095,1.023-0.109c43.823-2.259,78.143-38.427,78.143-82.345
	c0-45.466-36.992-82.454-82.454-82.454c-1.468,0-2.918,0.038-4.367,0.109c-2.653,0.175-5.239-0.829-7.171-2.657
	c-1.923-1.833-3.012-4.372-3.012-7.029c0-64.308-54.394-116.528-121.255-116.528c-53.106,0-99.571,32.625-115.609,81.179
	c-1.421,4.315-5.722,7.058-10.155,6.612c-3.306-0.322-6.66-0.488-10.041-0.488c-56.166,0-101.854,45.693-101.854,101.854
	s45.688,101.854,101.854,101.854C131.391,310.413,132.869,310.385,134.347,310.318z"/>
<path style="fill:#E4AD40;" d="M328.128,329.814c-8.165,21.662-18.624,51.176-24.507,67.903h63.934c5.258,0,9.558,4.182,9.7,9.435
	l1.364,50.454l37.314-87.607h-63.915c-5.362,0-9.7-4.343-9.7-9.7v-30.484H328.128z"/>
<path style="fill:#314E55;" d="M406.356,329.814c0.701,0,1.392-0.081,2.065-0.232c53.371-3.576,94.939-47.91,94.939-101.622
	c0-54.655-43.273-99.391-97.355-101.755C400.89,55.782,339.912,0,265.7,0c-58.875,0-110.759,34.814-131.458,87.379
	c-1.44-0.052-2.889-0.076-4.348-0.076c-66.861,0-121.255,54.394-121.255,121.255c0,64.61,50.834,117.424,114.587,120.918
	c-11.762,31.654-26.577,74.269-26.743,74.758c-1.033,2.965-0.568,6.248,1.26,8.805c1.819,2.557,4.765,4.078,7.901,4.078h68.159
	l2.321,85.447c0.123,4.557,3.41,8.412,7.891,9.265c0.606,0.114,1.213,0.17,1.809,0.17c3.827,0,7.38-2.274,8.924-5.902
	l60.476-142.001c1.279-2.994,0.966-6.432-0.834-9.146c-1.79-2.719-4.831-4.353-8.09-4.353h-68.888v-20.784h129.998
	c-11.742,31.62-26.453,73.934-26.618,74.42c-1.033,2.965-0.568,6.248,1.26,8.805c1.819,2.557,4.765,4.078,7.9,4.078h68.159
	l2.321,85.447c0.123,4.557,3.41,8.412,7.891,9.265c0.606,0.114,1.213,0.17,1.809,0.17c3.827,0,7.38-2.274,8.924-5.902
	l60.476-142.001c1.279-2.994,0.966-6.432-0.834-9.146c-1.79-2.719-4.831-4.353-8.09-4.353h-68.888v-20.784H406.356z M28.04,208.559
	c0-56.161,45.688-101.854,101.854-101.854c3.382,0,6.735,0.166,10.041,0.488c4.433,0.445,8.734-2.297,10.155-6.612
	c16.038-48.554,62.503-81.179,115.609-81.179c66.861,0,121.255,52.22,121.255,116.528c0,2.657,1.089,5.196,3.012,7.029
	c1.933,1.828,4.519,2.833,7.171,2.657c1.449-0.071,2.899-0.109,4.367-0.109c45.461,0,82.454,36.988,82.454,82.454
	c0,43.917-34.321,80.085-78.143,82.345c-0.341,0.014-0.682,0.052-1.023,0.109h-83.686c-0.004,0-0.008,0-0.008,0H136.807
	c-0.004,0-0.008,0-0.012,0h-0.6c-0.597-0.09-1.213-0.104-1.847-0.095c-1.478,0.066-2.955,0.095-4.452,0.095
	C73.729,310.413,28.04,264.72,28.04,208.559z M167.711,369.999h63.915l-37.314,87.607l-1.364-50.454
	c-0.142-5.253-4.443-9.435-9.7-9.435h-63.934c5.883-16.727,16.342-46.241,24.507-67.903h14.19v30.484
	C158.011,365.655,162.349,369.999,167.711,369.999z M352.019,369.999h63.915l-37.314,87.607l-1.364-50.454
	c-0.142-5.253-4.443-9.435-9.7-9.435h-63.934c5.883-16.727,16.342-46.241,24.507-67.903h14.19v30.484
	C342.319,365.655,346.657,369.999,352.019,369.999z"/>
<g>
</g>
<g>
</g>
<g>
</g>
<g>
</g>
<g>
</g>
<g>
</g>
<g>
</g>
<g>
</g>
<g>
</g>
<g>
</g>
<g>
</g>
<g>
</g>
<g>
</g>
<g>
</g>
<g>
</g>
</svg>
